<?xml version="1.0" encoding="utf-8"?>
<!-- Generator: Adobe Illustrator 22.1.0, SVG Export Plug-In . SVG Version: 6.00 Build 0)  -->
<svg version="1.1" id="Capa_1" xmlns="http://www.w3.org/2000/svg" xmlns:xlink="http://www.w3.org/1999/xlink" x="0px" y="0px"
	 viewBox="0 0 32 32" style="enable-background:new 0 0 32 32;" xml:space="preserve">
<style type="text/css">
	.st0{fill:none;}
</style>
<g>
	<path d="M25.8,7.5v18.6l2.1,3.5v0.9c0,0.3,0.2,0.5,0.5,0.5s0.5-0.2,0.5-0.5v-0.9l2.1-3.5V7.5v-1h-5.2V7.5z M29.6,26.5l-1.2,2
		l-1.2-2H29.6z"/>
	<path d="M29.5,1h-2.1c-0.9,0-1.5,0.7-1.5,1.5v2v1H31v-1v-2C31,1.7,30.3,1,29.5,1z"/>
	<path d="M21.2,1h-0.5h-0.5h-0.5v27h1v0h0.5c1.1,0,2.1-0.9,2.1-2v-6.5h-2.6v-10h2.6V3C23.2,1.9,22.3,1,21.2,1z"/>
	<polygon points="16,1 1,1 1,9.5 16,9.5 16,19.5 1,19.5 1,28 3.1,28 3.1,28 7.2,28 7.2,28 16,28 16,28 17,28 17,1 16.5,1 	"/>
	<polygon points="3.1,30.9 5.1,29.6 7.2,30.9 7.2,28.5 3.1,28.5 	"/>
</g>
<rect class="st0" width="32" height="32"/>
</svg>
