<?xml version="1.0" encoding="utf-8"?>
<!-- Generator: Adobe Illustrator 22.1.0, SVG Export Plug-In . SVG Version: 6.00 Build 0)  -->
<svg version="1.1" id="Capa_1" xmlns="http://www.w3.org/2000/svg" xmlns:xlink="http://www.w3.org/1999/xlink" x="0px" y="0px"
	 viewBox="0 0 32 32" style="enable-background:new 0 0 32 32;" xml:space="preserve">
<path d="M31.4,3.3H0.6C0.2,3.3,0,3.6,0,3.9v24.3c0,0.3,0.2,0.6,0.6,0.6h30.9c0.3,0,0.6-0.2,0.6-0.6V3.9C32,3.6,31.8,3.3,31.4,3.3z
	 M8.8,9.4c1.7,0,3.1,1.4,3.1,3.1c0,1.7-1.4,3.1-3.1,3.1s-3.1-1.4-3.1-3.1C5.8,10.8,7.1,9.4,8.8,9.4z M29.1,19.7
	c-0.2,0.2-0.6,0.2-0.8,0L22.1,14L17,19.6l2.7,2.7c0.2,0.2,0.2,0.6,0,0.8c-0.2,0.2-0.6,0.2-0.8,0l-5.7-5.7l-9,7.9
	c-0.1,0.1-0.2,0.1-0.4,0.1c-0.2,0-0.3-0.1-0.4-0.2c-0.2-0.2-0.2-0.6,0-0.8l9.4-8.3c0.2-0.2,0.5-0.2,0.8,0l2.6,2.6l5.4-5.9
	c0.1-0.1,0.2-0.2,0.4-0.2c0.1,0,0.3,0,0.4,0.1l6.6,6.1C29.3,19.1,29.3,19.5,29.1,19.7z"/>
</svg>
