<?xml version="1.0" encoding="utf-8"?>
<!-- Generator: Adobe Illustrator 22.1.0, SVG Export Plug-In . SVG Version: 6.00 Build 0)  -->
<svg version="1.1" id="Capa_1" xmlns="http://www.w3.org/2000/svg" xmlns:xlink="http://www.w3.org/1999/xlink" x="0px" y="0px"
	 viewBox="0 0 32 32" style="enable-background:new 0 0 32 32;" xml:space="preserve">
<style type="text/css">
	.st0{fill:none;}
</style>
<path d="M16,1C7.7,1,1,7.7,1,16s6.7,15,15,15s15-6.7,15-15S24.3,1,16,1z M17.2,24.7c0,0.6-0.5,1.2-1.2,1.2s-1.2-0.5-1.2-1.2v-1.2
	c0-0.6,0.5-1.2,1.2-1.2s1.2,0.5,1.2,1.2V24.7z M17.2,20c0,0.6-0.5,1.2-1.2,1.2s-1.2-0.5-1.2-1.2V7.3c0-0.6,0.5-1.2,1.2-1.2
	s1.2,0.5,1.2,1.2V20z"/>
<rect class="st0" width="32" height="32"/>
<polygon class="st0" points="-10.9,60.4 -10.9,60.4 -10.9,60.4 -10.9,60.4 "/>
</svg>
